<?xml version="1.0" encoding="utf-8"?>
<!-- Generator: Adobe Illustrator 16.0.0, SVG Export Plug-In . SVG Version: 6.00 Build 0)  -->
<!DOCTYPE svg PUBLIC "-//W3C//DTD SVG 1.1//EN" "http://www.w3.org/Graphics/SVG/1.1/DTD/svg11.dtd">
<svg version="1.1" id="Layer_1" xmlns="http://www.w3.org/2000/svg" xmlns:xlink="http://www.w3.org/1999/xlink" x="0px" y="0px"
	 width="261px" height="283px" viewBox="0 0 261 283" enable-background="new 0 0 261 283" xml:space="preserve">
<g>
	<g>
		<defs>
			<path id="SVGID_1_" d="M103.641,279.348c56.639,0,102.555-45.916,102.555-102.554c0-56.633-45.916-102.547-102.555-102.547
				c-56.639,0-102.553,45.914-102.553,102.547C1.088,233.432,47.002,279.348,103.641,279.348z"/>
		</defs>
		<use xlink:href="#SVGID_1_"  overflow="visible" fill-rule="evenodd" clip-rule="evenodd" fill="#FBC52B"/>
		<clipPath id="SVGID_2_">
			<use xlink:href="#SVGID_1_"  overflow="visible"/>
		</clipPath>
		<g clip-path="url(#SVGID_2_)">
			<defs>
				<rect id="SVGID_3_" x="-146.627" y="-663.388" width="1204.302" height="2364.376"/>
			</defs>
			<clipPath id="SVGID_4_">
				<use xlink:href="#SVGID_3_"  overflow="visible"/>
			</clipPath>
		</g>
	</g>
	<g>
		<path fill="#F4BF97" stroke="#231F20" stroke-width="0.6151" stroke-miterlimit="10" d="M199.686,129.644
			c0,0,3.332,0.284,5.312-2.272c1.979-2.553,4.675-8.124,4.677-8.13c1.217-2.513,3.33-4.281,6.075-3.836
			c1.255,0.205,2.832,0.271,3.933,0.971c1.56,0.994,1.097,1.772,0.645,3.23c-0.047,0.155,3.981-0.59,4.346-0.711
			c3.316-1.102,7.252-3.608,10.771-1.652c1.351,0.75,0.425,1.801,0.917,3.016c0.236,0.584,0.916,0.921,1.179,1.56
			c0.283,0.682,0.213,1.268,0.29,1.994c0.092,0.844,0.345,2.045,0.844,2.762c0.331,0.478,0.971,0.713,1.292,1.216
			c0.683,1.063,0.516,2.607,1.07,3.608c0.509,0.92,1.521,1.631,2.001,2.606c1.033,2.095-0.675,3.638-2.357,4.504
			c-1.831,0.939-3.378,2.341-5.224,3.245c-1.787,0.874-3.701,1.451-5.621,1.955c-3.526,0.927-7.102,1.712-10.713,2.229
			c-2.754,0.394-5.633,0.725-8.408,0.342l-4.999,2.205"/>
		<path fill="#CCCCCC" stroke="#231F20" stroke-width="0.6151" stroke-miterlimit="10" d="M214.291,113.364l11.935,41.745
			c0,0,1.013,5.75,6.361,4.747l5.33-1.804c0,0,4.349-0.88,3.062-5.472l-14.546-42.789c0,0-1.685-2.112,0.499-4.886
			c0,0,4.425-5.073,0.846-12.876c0,0-3.771-6.809-10.759-5.325l3.374,11.438l-7.292,2.389l-3.269-11.622c0,0-7.17,2.277-6.761,9.622
			c0.519,9.364,7.629,10.95,7.629,10.95S213.733,109.792,214.291,113.364z"/>
		<path fill="#F4BF97" stroke="#231F20" stroke-width="0.6151" stroke-miterlimit="10" d="M215.67,121.846
			c3.854,1.975,7.308-0.747,7.308-2.412c0-2.965-1.93-3.593-5.066-3.952c-4.021-0.458-5.677-0.388-7.229,1.372
			c-2.046,2.32-2.037,3.786-3.09,6.385"/>
		<path fill="#F4BF97" stroke="#231F20" stroke-width="0.6151" stroke-miterlimit="10" d="M237.769,116.516
			c0.754,1.477,0.222,3.301-0.915,3.646c-2.315,0.704-4.63,1.406-6.944,2.109c-2.234,0.678-6.04,2.31-6.862-1.233
			c-0.291-1.259-0.035-2.634,1.373-3.062c2.079-0.677,4.159-1.352,6.24-2.025c1.161-0.379,2.317-0.777,3.486-1.135
			C236.195,114.19,237.021,114.848,237.769,116.516z"/>
		<path fill="#F4BF97" stroke="#231F20" stroke-width="0.6151" stroke-miterlimit="10" d="M239.92,122.251
			c0.755,1.477,0.221,3.3-0.916,3.646c-2.313,0.702-4.629,1.404-6.944,2.108c-2.234,0.678-6.04,2.311-6.862-1.235
			c-0.29-1.256-0.035-2.633,1.373-3.061c2.08-0.676,4.159-1.352,6.24-2.027c1.161-0.375,2.318-0.776,3.488-1.131
			C238.349,119.926,239.172,120.585,239.92,122.251z"/>
		<path fill="#F4BF97" stroke="#231F20" stroke-width="0.6151" stroke-miterlimit="10" d="M241.353,127.271
			c0.757,1.476,0.224,3.299-0.913,3.644c-2.317,0.704-4.631,1.407-6.946,2.108c-2.232,0.679-6.039,2.313-6.861-1.232
			c-0.29-1.258-0.036-2.634,1.372-3.062c2.078-0.675,4.159-1.352,6.24-2.027c1.161-0.376,2.319-0.776,3.486-1.133
			C239.78,124.944,240.605,125.604,241.353,127.271z"/>
		<path fill="#F4BF97" stroke="#231F20" stroke-width="0.6151" stroke-miterlimit="10" d="M243.505,133.006
			c0.755,1.477,0.222,3.3-0.915,3.646c-2.316,0.703-4.631,1.404-6.946,2.107c-2.232,0.679-6.039,2.312-6.86-1.234
			c-0.291-1.256-0.037-2.633,1.371-3.062c2.081-0.676,4.159-1.351,6.24-2.026c1.161-0.377,2.319-0.775,3.488-1.133
			C241.934,130.681,242.756,131.339,243.505,133.006z"/>
		<path fill="#000107" d="M165.72,62.998c0,0,18.709-7.986,20.824-19.442l-1.822-2.324c0,0-20.124-1.212-22.126,7.396
			C162.596,48.628,164.191,50.871,165.72,62.998z"/>
		<path fill="#0050BD" stroke="#000000" stroke-width="0.7169" stroke-miterlimit="10" d="M122.945,101.773l8.597-1.241
			c0,0,2.351,16.734,20.359,23.968c0,0,15.88,7.6,47.144,1.3c0,0,4.008,5.77,6.212,12.288c2.203,6.519,3.221,12.598,3.221,12.598
			s-29.035,5.408-57.282-10.558C122.948,124.162,122.945,101.773,122.945,101.773z"/>
		<g>
			<path d="M230.039,268.552l29.873-33.219c0,0-6.214-4.54-11.232-2.869c0,0-4.542,0.956-8.604,8.365l-13.5,7.126
				c0,0-2.512,5.062-7.53,9.126L230.039,268.552z"/>
		</g>
		<path fill="#0050BD" d="M145.864,77.87c1.069,1.414,20.076,22.723,25.646,50.044c6.036,29.613,4.012,26.493,2.496,39.28
			l-84.199,13.995c0,0-11.275-39.299,7.776-80.679c0,0-0.302-4.868,0-17.409C97.583,83.101,120.051,68.278,145.864,77.87z"/>
		<path fill="#FFFFFF" d="M156.953,95.289l1.152,13.383l-9.799,7.647l-2.985,17.818l-1.381,1.996l-17.414-18.14l-17.173-4.781
			l-11.72-14.739c0,0,14.529,13.736,37.225,8.766C157.554,102.267,156.953,95.289,156.953,95.289z"/>
		<path fill="#0050BD" stroke="#000000" stroke-width="0.5946" stroke-miterlimit="10" d="M149.354,163.519
			c0,0-1.047-13.294-5.413-27.386"/>
		<path d="M34.547,225.114l-18.857,40.499c0,0,7.269,2.525,11.58-0.541c0,0,4.064-2.242,5.782-10.515l10.828-10.761
			c0,0,0.922-5.573,4.534-10.929L34.547,225.114z"/>
		<path fill="#0050BD" d="M89.807,181.189l84.199-13.995c0,0,6.724,13.343-0.907,27.777c0,0,22.766,4.276,35.033,18.853
			c9.365,11.13,12.11,15.534,18.801,35.131c0,0-1.194,4.54-7.887,8.126c0,0-5.496-13.146-9.08-19.12
			c-3.585-5.975-6.692-13.622-19.598-21.029c0,0-6.93-6.691-30.351-3.824c0,0-16.256,11.126-34.418,7.778
			c0,0-2.863,16.359-20.308,24.724c0,0-24.375,14.1-60.94-3.586c0,0,1.195-7.646,3.584-9.798c0,0,25.333,8.125,40.151,5.975
			c0,0,15.533-1.433,16.966-21.269C105.051,216.932,89.756,212.137,89.807,181.189z"/>
		<polygon points="87.849,175.163 88.614,183.617 183.68,171.431 178.615,156.835 		"/>
		<g>
			
				<path fill="#F4BF97" stroke="#000000" stroke-width="1.2303" stroke-linecap="round" stroke-linejoin="round" stroke-miterlimit="10" d="
				M205.807,165.985c-0.132-1.897-0.697-2.844-2.929-2.969c-1.269-0.071-2.544-0.098-3.818-0.148
				c-2.275-0.09-4.552-0.181-6.829-0.267c-0.286-0.017-0.536,0.027-0.77,0.097c-0.216-0.054-0.432-0.092-0.647-0.149
				c-0.084-0.021-0.179-0.046-0.27-0.065c2.54-0.625,4.612-1.736,6.266-3.479c1.802-1.896,2.509-4.521-0.309-5.228
				c-1.21-0.303-2.91,0.776-4.113,1.088c-2.165,0.556-3.8,1.062-6.773,0.867c-3.025-0.198-5.665,0.335-9.119,2.163
				c-1.003,0.531-1.626,1.134-2.082,1.802c-1.665,1.325-4.654,3.617-6.706,4.7c-2.975,1.572-6.015-0.135-6.015-0.135l-2.394,20.473
				l5.692,0.058c2.468,1.56,5.34,2.486,8.124,3.298c2.755,0.805,5.553,1.454,8.371,1.999c2.058,0.398,4.519,1.211,6.618,0.718
				c2.379-0.56,4.935-1.07,7.021-2.409c1.225,0.154,2.508-1.342,2.429-3.065c0.008-1.309-0.243-2.173-1.11-2.685
				c-0.069-0.146-0.107-0.247-0.085-0.253c0.486-0.099,0.864-0.187,1.205-0.336c0.117-0.005,0.235,0,0.354-0.008
				c1.235-0.075,2.519-1.339,2.438-3.065c0.005-1.252-0.22-2.097-0.998-2.617c0.205-0.219,0.371-0.004,0.697-0.104
				c0.044-0.014,0.085-0.036,0.128-0.053c1.216,0.123,2.479-1.359,2.397-3.065c0.01-1.475-0.301-2.392-1.465-2.866
				c-0.096-0.265-0.043-0.511,0.393-0.684c0.535-0.214,1.302-0.041,1.883-0.2c0.16-0.047,0.329-0.121,0.499-0.206
				C205.012,169.021,205.994,167.562,205.807,165.985z"/>
			<g>
				<path fill="#F4BF97" d="M161.692,164.262c0,0,3.04,1.707,6.015,0.135c2.979-1.57,7.934-5.694,7.942-5.7
					c2.231-1.861,5.001-2.624,7.411-1.021c0.844,0.559,2.056,0.967,2.691,1.784c0.481,0.618,0.417,1.133,1.012,1.655
					c0.951,0.839,2.872,1.117,4.05,1.435c2.808,0.755,5.723,0.997,8.539,1.708c1.13,0.284,2.072,0.796,3.223,0.918
					c1.301,0.139,3.437,0.809,2.739,2.6c-0.287,0.744-1.18,1.413-1.923,1.622c-0.581,0.159-1.348-0.014-1.883,0.2
					c-1.056,0.419,0.083,1.267,0.352,1.776c0.447,0.846,0.507,2.263-0.001,3.081c-0.401,0.647-1.059,1.582-1.804,1.811
					c-0.365,0.112-0.53-0.175-0.772,0.201c-0.264,0.408,0.119,0.849,0.28,1.203c0.291,0.632,0.376,1.298,0.181,2.039
					c-0.175,0.649-0.712,1.091-1.156,1.584c-0.685,0.756-1.234,0.898-2.229,1.103c-0.093,0.019,0.713,1.41,0.768,1.524
					c0.336,0.683,0.388,1.425,0.207,2.169c-0.252,1.032-1.31,1.731-2.163,2.283c-2.096,1.359-4.672,1.872-7.066,2.436
					c-2.1,0.493-4.561-0.319-6.618-0.718c-2.818-0.545-5.616-1.194-8.371-1.999c-2.784-0.812-5.656-1.738-8.124-3.298l-5.692-0.058"
					/>
				<path fill="#F4BF97" d="M189.896,162.636c2.843-0.587,5.121-1.741,6.913-3.632c1.802-1.896,2.509-4.521-0.309-5.228
					c-1.21-0.303-2.91,0.776-4.113,1.088c-2.165,0.556-3.8,1.062-6.773,0.867c-3.025-0.198-5.665,0.335-9.119,2.163
					c-2.848,1.507-2.671,3.599-4.149,6.12"/>
				<path fill="#F4BF97" d="M205.807,165.985c0.204,1.713-0.974,3.305-2.208,3.236c-2.516-0.148-5.031-0.296-7.548-0.443
					c-2.43-0.143-6.737,0.082-6.262-3.678c0.168-1.335,0.913-2.588,2.441-2.499c2.277,0.086,4.554,0.177,6.829,0.267
					c1.274,0.051,2.55,0.077,3.818,0.148C205.109,163.142,205.675,164.088,205.807,165.985z"/>
				<path fill="#F4BF97" d="M202.581,173.146c0.082,1.725-1.209,3.227-2.436,3.065c-2.498-0.331-4.996-0.661-7.498-0.991
					c-2.41-0.318-6.722-0.408-5.976-4.123c0.265-1.319,1.097-2.514,2.619-2.316c2.267,0.254,4.528,0.512,6.791,0.764
					c1.268,0.144,2.535,0.265,3.798,0.428C202.092,170.26,202.593,171.243,202.581,173.146z"/>
				<path fill="#F4BF97" d="M200.356,178.985c0.08,1.727-1.203,2.99-2.438,3.065c-2.596,0.157-5.108-0.101-7.607-0.428
					c-2.411-0.32-6.616-0.969-5.865-4.686c0.264-1.321,1.098-2.515,2.618-2.315c2.266,0.256,4.529,0.508,6.792,0.765
					c1.266,0.144,2.535,0.265,3.798,0.427C199.868,176.104,200.363,177.083,200.356,178.985z"/>
				<path fill="#F4BF97" d="M197.555,185.332c0.079,1.728-1.211,3.229-2.437,3.065c-2.497-0.33-4.995-0.659-7.496-0.99
					c-2.412-0.317-6.724-0.409-5.979-4.124c0.268-1.317,1.101-2.513,2.622-2.316c2.266,0.257,4.525,0.51,6.791,0.766
					c1.267,0.145,2.535,0.261,3.798,0.428C197.066,182.449,197.565,183.43,197.555,185.332z"/>
			</g>
		</g>
		<path fill="#0050BD" stroke="#000000" stroke-width="0.7169" stroke-miterlimit="10" d="M99.282,118.794
			c0,0-6.311,17.938,15.509,41.953c21.82,24.016,51.084,27.98,51.084,27.98s1.502-8.312,1.281-13.403
			c-0.224-5.094-2.436-13.187-2.436-13.187c-31.665-3.813-44.36-16.007-44.36-16.007c-8.011-6.76-10.819-14.716-11.707-20.606"/>
		<path fill="#0050BD" stroke="#000000" stroke-width="0.7169" stroke-miterlimit="10" d="M108.756,106.037
			c0,0,5.056,5.217,11.628,7.022c6.575,1.804,10.954-0.426,13.84,4.193c0,0,7.854,11.974,9.717,18.881
			c-0.085-0.316-1.702-0.939-1.973-1.088c-1.548-0.854-3.093-1.708-4.64-2.562c-2.583-1.425-5.164-2.85-7.745-4.275
			c-0.839-0.462-1.702-0.9-2.523-1.393c-1.565-0.938-2.096-2.758-3.003-4.246c-0.614-1.008-1.229-2.017-1.844-3.026
			c0,0-7.512-0.229-10.185,3.635c-2.675,3.863-14.994-17.336-14.413-25.734l3.613-4.029L108.756,106.037z"/>
		<path fill="#0050BD" stroke="#000000" stroke-width="0.5946" stroke-miterlimit="10" d="M154.019,100.598
			c0.02,0.415,0.038,0.809,0.03,1.145c-0.066,2.918,0.424,5.513-2.088,7.636c-3.647,3.084-6.795,2.327-7.532,6.859
			c0,0-1.822,13.092-0.488,19.896c0.1-0.144,0.2-0.29,0.302-0.435c1.469-2.124,2.938-4.248,4.407-6.372
			c0.852-1.23,1.703-2.46,2.555-3.692c0.693-1.002,1.704-2.055,1.771-3.315c0.017-0.322,0.018-0.646,0.026-0.968
			c0.022-0.803,0.046-1.604,0.068-2.405c0.029-1.055,0.06-2.11,0.09-3.165c0,0,4.847-1.823,8.03,1.186
			c3.184,3.006,1.364-18.494-4.915-23.552c0.612,1.352-2.804,1.875-1.774,3.883C154.954,98.187,153.967,99.444,154.019,100.598z"/>
		<path fill="#F4BF97" stroke="#000000" stroke-width="1.0603" stroke-miterlimit="10" d="M165.036,57.988
			c0,0,4.778,21.81-6.93,36.534c0,0-8.58,17.438-41.104,15.047c-12.19-0.897-21.748-13.129-26.528-24.307
			c-4.78-11.178-15.893-34.933,5.376-41.568c0,0,45.409-22.97,70.469-3.118L165.036,57.988z"/>
		
			<ellipse transform="matrix(0.9977 -0.0685 0.0685 0.9977 -4.1439 9.1326)" fill="#000107" cx="131.081" cy="64.984" rx="1.932" ry="4.428"/>
		<polygon fill="#000107" points="148.117,44.549 162.978,51.298 161.224,54.248 147.007,48.983 		"/>
		<polygon fill="#000107" points="133.291,45.27 118.19,52.912 120.287,56.026 135.47,49.542 		"/>
		<path fill="#000107" d="M126.526,79.596c0,0,3.088,9.904,20.882,5.377c0,0,12.396-1.567,12.03-12.585
			c0.002,0.769,1.844,13.362-3.807,17.385c-5.651,4.023-10.014,6.353-18.857,4.533C128.148,92.53,126.451,84.057,126.526,79.596z"/>
		<path fill="#FFFFFF" d="M128.181,82.217c2.342,2.563,7.698,5.688,19.227,2.756c0,0,9.973-1.26,11.764-9.473
			c0.206-0.941,0.889,10.104-3.54,14.272c0,0-5.654,7.495-18.857,4.533C128.113,92.362,126.91,80.824,128.181,82.217z"/>
		
			<ellipse transform="matrix(0.9976 -0.0689 0.0689 0.9976 -3.9326 10.7266)" fill="#000107" cx="153.627" cy="62.407" rx="1.932" ry="4.43"/>
		<path fill="#000107" d="M78.383,54.852c0,0-1.846,5.884-0.422,9.027l10.388,12.404l0.407,2.477c0,0,4.02-5.382,10.326-5.689
			c0,0-5.548-8.354,4.896-13.336c0,0-8.66-12.928,7.271-20.991c0,0,38.104-19.357,51.479-2.343
			c4.629,5.883-11.481-12.218-13.374-15.196c-1.576-2.476-20.379-7.945-34.504-3.092c-14.125,4.854-16.148,2.018-34.619,24.338
			C78.358,44.713,78.383,54.852,78.383,54.852z"/>
		
			<path fill="#F4BF97" stroke="#000000" stroke-width="1.0603" stroke-linecap="round" stroke-linejoin="round" stroke-miterlimit="10" d="
			M93.628,74.147c0,0,0.275-16.03-11.577-12.994c0,0-12.749,2.003-8.386,18.632c0,0,3.882,14.802,16.205,12.416
			c0,0,7.073-0.071,8.831-8.169"/>
		<path fill="none" stroke="#000000" stroke-width="0.7169" stroke-miterlimit="10" d="M86,73.038c0,0-2.102-5.062-5.338-2.644
			c-3.236,2.415-0.746,7.637,3.995,9.403"/>
		<g>
			<path fill="#0050BD" d="M77.415,63.227c0,0-9.324-48.616,36.539-58.333c39.25-8.316,48.817,27.845,48.817,27.845
				s-21.163-1.431-38.601,2.686C97.808,41.649,77.415,63.227,77.415,63.227z"/>
		</g>
		<path fill="#0050BD" d="M136.416,32.694c0,0,11.204,18.783,30.519,17.854c0,0,16.032-3.221,18.423-8.528
			c0,0-10.195-14.206-32.214-11.285L136.416,32.694z"/>
		<path fill="#F29D61" d="M144.691,78.243c0.285-0.295,1.334-0.124,1.739-0.186c1.128-0.174,2.203-0.547,3.153-1.041
			c1.905-0.99,0.285,1.286-0.013,1.726c-0.311,0.462-0.537,1.167-1.307,1.323c-0.798,0.162-2.007-0.397-2.593-0.699
			C145.292,79.172,144.32,78.623,144.691,78.243z"/>
		
			<path fill="none" stroke="#000000" stroke-width="0.7169" stroke-linecap="round" stroke-linejoin="round" stroke-miterlimit="10" d="
			M144.337,62.408c0,0,1.706,3.95,3.014,6.116c1.467,2.422,3.511,4.439,3.347,6.212c-0.278,3.013-3.114,4.088-6.757,3.574"/>
	</g>
</g>
</svg>
